<?xml version="1.0" encoding="utf-8"?>
<!-- Generator: Adobe Illustrator 21.0.2, SVG Export Plug-In . SVG Version: 6.00 Build 0)  -->
<svg version="1.1" id="Layer_1" xmlns="http://www.w3.org/2000/svg" xmlns:xlink="http://www.w3.org/1999/xlink" x="0px" y="0px"
	 viewBox="0 0 100 100" style="enable-background:new 0 0 100 100;" xml:space="preserve">
<path d="M95,15.5v69.1C95,90.3,90.4,95,84.8,95H41.2C35.6,95,31,90.3,31,84.5V65.9c0-1.7,1.3-3,3-3s3,1.3,3,3v18.7
	c0,2.5,1.9,4.5,4.2,4.5h43.5c2.3,0,4.2-2,4.2-4.5V15.5c0-2.5-1.9-4.5-4.2-4.5H41.2c-2.3,0-4.2,2-4.2,4.5v18.7c0,1.7-1.3,3-3,3
	s-3-1.3-3-3V15.5C31,9.7,35.6,5,41.2,5h43.5C90.4,5,95,9.7,95,15.5z M53,64.9c-1.2,1.2-1.2,3.1,0,4.2c0.6,0.6,1.4,0.9,2.1,0.9
	s1.5-0.3,2.1-0.9l17-17c1.2-1.2,1.2-3.1,0-4.2l-17-17c-1.2-1.2-3.1-1.2-4.2,0c-1.2,1.2-1.2,3.1,0,4.2L64.9,47H8c-1.7,0-3,1.3-3,3
	c0,1.7,1.3,3,3,3h56.9L53,64.9z"/>
</svg>
